<?xml version="1.0" encoding="UTF-8"?> <!-- Generator: Adobe Illustrator 22.1.0, SVG Export Plug-In . SVG Version: 6.00 Build 0) --> <svg xmlns="http://www.w3.org/2000/svg" xmlns:xlink="http://www.w3.org/1999/xlink" version="1.1" id="Layer_1" x="0px" y="0px" width="200px" height="80px" viewBox="0 0 250 100" style="enable-background:new 0 0 250 100;" xml:space="preserve"> <style type="text/css"> .st0{clip-path:url(#SVGID_2_);fill:#00A383;} .st1{clip-path:url(#SVGID_2_);fill:#284064;} </style> <g> <defs> <rect id="SVGID_1_" x="1.8" y="17.7" width="246.3" height="64"></rect> </defs> <clipPath id="SVGID_2_"> <use xlink:href="#SVGID_1_" style="overflow:visible;"></use> </clipPath> <path class="st0" d="M31.4,19.7L10.6,58.8c-0.2,0.4-0.7,0.7-1.2,0.7c-0.1,0-0.1,0-0.2,0c-0.6-0.1-1-0.5-1.1-1.1L1.9,19.3 c-0.1-0.4,0-0.8,0.3-1.1c0.2-0.3,0.6-0.5,1-0.5h27.1c0.5,0,0.9,0.2,1.1,0.6C31.6,18.8,31.6,19.3,31.4,19.7"></path> <path class="st0" d="M42,54.8L28.3,81.1c-0.2,0.4-0.7,0.7-1.2,0.7H10.9c-0.5,0-0.9-0.2-1.1-0.6c-0.2-0.4-0.3-0.9,0-1.3l13.5-26.2 c0.2-0.4,0.7-0.7,1.2-0.7h16.4c0.5,0,0.9,0.2,1.1,0.6C42.2,53.9,42.2,54.4,42,54.8"></path> <path class="st0" d="M60.6,19.7L46.9,45.9c-0.2,0.4-0.7,0.7-1.2,0.7H29.4c-0.5,0-0.9-0.2-1.1-0.6c-0.2-0.4-0.3-0.9,0-1.3l13.5-26.2 c0.2-0.4,0.7-0.7,1.2-0.7h16.4c0.5,0,0.9,0.2,1.1,0.6C60.8,18.8,60.8,19.3,60.6,19.7"></path> <path class="st1" d="M78.5,61.8c-1,1.4-2.2,2.4-3.8,2.4h-0.2c-1.6,0-2.5-0.9-2.7-2.6L67.6,35c-0.1-0.4-0.1-1-0.1-1.4 c0-1.5,1.2-2.6,3-2.6c1.8,0,2.8,1,3,2.6l3,22.3L92,32.9c0.7-1.2,1.7-1.8,3-1.8c1.4,0,2.5,0.6,2.5,2.1c0,0.6-0.2,1.3-0.6,1.8 L78.5,61.8z"></path> <path class="st1" d="M98.1,63.6c-1.8,0-2.9-1.4-2.3-3.6l6.9-25.9c0.5-1.8,1.7-2.9,3.2-2.9h18.3c1.4,0,2.5,1.2,2.5,2.5 c0,1.4-1.2,2.5-2.5,2.5h-16.5l-2.3,8.5h13c1.4,0,2.6,1.1,2.6,2.5c0,1.4-1.2,2.5-2.6,2.5h-14.3l-2.4,8.7h15.4c1.4,0,2.5,1.2,2.5,2.5 c0,1.4-1.2,2.5-2.5,2.5H98.1z"></path> <path class="st1" d="M145,54.6c0-1.9-1.3-3.1-6-4.9c-4.9-2-8.3-4.2-8.3-8.7c0-6.1,5.5-10.2,12.4-10.2c5,0,7.9,1.6,10,3.2 c0.7,0.6,1.3,1.2,1.3,2.4c0,1.6-1.2,2.8-2.8,2.8c-0.6,0-1.2-0.2-1.7-0.6c-2.2-1.8-4.3-2.7-7.3-2.7c-3.8,0-6,2.1-6,4.3 c0,2.1,1.6,3.1,6.3,4.9c4.9,1.9,8,4.2,8,8.7c0,6.3-5.8,10.4-12.6,10.4c-4.2,0-8.8-1.1-12-4.2c-0.6-0.5-1.1-1.4-1.1-2.4 c0-1.6,1.2-2.9,2.8-2.9c0.8,0,1.5,0.4,1.9,0.7c2.7,2.5,5,3.6,8.8,3.6C142.3,59.1,145,57.3,145,54.6"></path> <path class="st1" d="M168.2,61.1c-0.5,1.8-1.7,2.8-3.1,2.8c-1.8,0-3-1.3-2.3-3.7l6.4-23.7H162c-1.4,0-2.6-1.2-2.6-2.6 c0-1.4,1.2-2.6,2.6-2.6h21.5c1.4,0,2.6,1.2,2.6,2.6c0,1.4-1.2,2.6-2.6,2.6h-8.6L168.2,61.1z"></path> <path class="st1" d="M200.8,47.3c3.4,0,6.1-0.9,7.6-2.5c1-1,1.6-2.3,1.6-3.9c0-1.2-0.4-2.2-1.2-3c-1.1-1-2.8-1.6-5.4-1.6h-7.1 l-2.9,10.9H200.8z M189.8,61.1c-0.5,1.8-1.7,2.8-3.1,2.8c-1.8,0-3-1.3-2.3-3.7l7-26.1c0.5-1.8,1.7-2.9,3.2-2.9h9.3 c4.5,0,7.7,1,9.8,3.1c1.5,1.5,2.4,3.7,2.4,6.1c0,3-1.1,5.5-3,7.4c-1.9,1.9-4.4,3.1-7.8,3.8l4.6,7.6c0.5,0.7,0.6,1.3,0.6,1.9 c0,1.7-1.4,2.6-2.8,2.6c-1.6,0-2.6-0.7-3.2-1.8l-5.6-9.7h-6.8L189.8,61.1z"></path> <path class="st1" d="M240.7,50.8l-2.2-13.1l-9.2,13.1H240.7z M248,59.7c0.1,0.5,0.2,1.1,0.2,1.5c0,1.5-1.2,2.7-2.9,2.7 c-1.6,0-2.6-1-2.8-2.3l-1-5.7h-15.8l-4.4,6.2c-0.7,1-1.7,1.8-2.9,1.8c-1.4,0-2.4-0.9-2.4-2.3c0-0.6,0.2-1.3,0.7-1.8l19.1-26.6 c0.9-1.3,2.2-2.3,4-2.3h0.1c1.9,0,2.8,1.1,3.1,2.7L248,59.7z"></path> <path class="st1" d="M74.2,77.7c-0.1,0.3-0.2,0.4-0.5,0.4c-0.3,0-0.5-0.2-0.4-0.5l0.8-3h-4.5l-0.9,3.2c-0.1,0.3-0.3,0.4-0.5,0.4 c-0.3,0-0.5-0.2-0.4-0.5l1.9-7c0.1-0.3,0.2-0.4,0.5-0.4c0.3,0,0.5,0.2,0.4,0.5l-0.8,3h4.5l0.8-3.1c0.1-0.3,0.3-0.4,0.5-0.4 c0.3,0,0.5,0.2,0.4,0.5L74.2,77.7z"></path> <path class="st1" d="M80.2,78.1c-0.3,0-0.5-0.2-0.4-0.5l1.8-6.9c0.1-0.3,0.3-0.4,0.5-0.4H87c0.2,0,0.4,0.2,0.4,0.4 s-0.2,0.4-0.4,0.4h-4.5l-0.7,2.7h3.8c0.2,0,0.4,0.2,0.4,0.4c0,0.2-0.2,0.4-0.4,0.4h-4l-0.7,2.7h4.3c0.2,0,0.4,0.2,0.4,0.4 s-0.2,0.4-0.4,0.4H80.2z"></path> <path class="st1" d="M96.3,75.2l-0.7-4l-2.9,4H96.3z M97.6,77.5c0,0.1,0,0.2,0,0.2c0,0.2-0.2,0.4-0.4,0.4c-0.2,0-0.4-0.2-0.4-0.4 L96.4,76h-4.3l-1.3,1.8c-0.1,0.2-0.3,0.3-0.5,0.3c-0.2,0-0.4-0.1-0.4-0.4c0-0.1,0-0.2,0.1-0.3l5-7c0.2-0.2,0.4-0.4,0.6-0.4h0 c0.3,0,0.5,0.2,0.5,0.4L97.6,77.5z"></path> <path class="st1" d="M102.7,78.1c-0.3,0-0.5-0.2-0.4-0.5l1.9-7c0.1-0.3,0.2-0.4,0.5-0.4c0.3,0,0.5,0.2,0.4,0.5l-1.7,6.5h3.9 c0.2,0,0.4,0.2,0.4,0.4s-0.2,0.4-0.4,0.4H102.7z"></path> <path class="st1" d="M114.2,77.7c-0.1,0.3-0.3,0.4-0.5,0.4c-0.3,0-0.5-0.2-0.4-0.5l1.8-6.5h-2.2c-0.2,0-0.4-0.2-0.4-0.4 c0-0.2,0.2-0.4,0.4-0.4h5.4c0.2,0,0.4,0.2,0.4,0.4c0,0.2-0.2,0.4-0.4,0.4H116L114.2,77.7z"></path> <path class="st1" d="M128,77.7c-0.1,0.3-0.2,0.4-0.5,0.4c-0.3,0-0.5-0.2-0.4-0.5l0.8-3h-4.5l-0.9,3.2c-0.1,0.3-0.3,0.4-0.5,0.4 c-0.3,0-0.5-0.2-0.4-0.5l1.9-7c0.1-0.3,0.2-0.4,0.5-0.4c0.3,0,0.5,0.2,0.4,0.5l-0.8,3h4.5l0.8-3.1c0.1-0.3,0.3-0.4,0.5-0.4 c0.3,0,0.5,0.2,0.4,0.5L128,77.7z"></path> <path class="st1" d="M145.7,71.9c0-0.6-0.4-1-1.1-1c-0.7,0-1.3,0.6-1.3,1.3c0,0.4,0.1,0.8,0.5,1.3C145.3,73,145.7,72.4,145.7,71.9 M144.9,76.5l-1.6-2.3c-1.5,0.4-2.1,1.2-2.1,2c0,0.8,0.6,1.3,1.5,1.3C143.5,77.5,144.2,77.1,144.9,76.5 M145.4,77 c-0.8,0.8-1.7,1.2-2.8,1.2c-1.3,0-2.3-0.7-2.3-2c0-1.2,0.9-2.1,2.6-2.6c-0.3-0.5-0.5-1-0.5-1.5c0-1.1,1-2,2.2-2 c1.2,0,1.9,0.7,1.9,1.7c0,0.8-0.5,1.6-2.4,2.2l1.4,2c0.4-0.5,0.8-1,1-1.4c0.1-0.1,0.2-0.3,0.4-0.3c0.2,0,0.3,0.1,0.3,0.3 c0,0.1,0,0.2-0.1,0.3c-0.3,0.5-0.7,1.1-1.2,1.6l0.7,1c0.1,0.1,0.1,0.2,0.1,0.3c0,0.2-0.2,0.4-0.4,0.4c-0.1,0-0.3-0.1-0.4-0.2 L145.4,77z"></path> <path class="st1" d="M161.8,74.5c1.8,0,2.9-0.7,2.9-2c0-0.4-0.1-0.7-0.4-0.9c-0.3-0.3-0.9-0.5-1.6-0.5h-1.8l-0.9,3.4H161.8z M159.3,77.7c-0.1,0.3-0.3,0.4-0.5,0.4c-0.3,0-0.5-0.2-0.4-0.5l1.9-6.9c0.1-0.3,0.3-0.4,0.5-0.4h2.1c1,0,1.7,0.2,2.2,0.7 c0.4,0.4,0.6,0.9,0.6,1.5c0,1.8-1.6,2.9-3.9,2.9h-1.9L159.3,77.7z"></path> <path class="st1" d="M175.5,77.7c-0.1,0.3-0.2,0.4-0.5,0.4c-0.3,0-0.5-0.2-0.4-0.5l0.8-3H171l-0.9,3.2c-0.1,0.3-0.3,0.4-0.5,0.4 c-0.3,0-0.5-0.2-0.4-0.5l1.9-7c0.1-0.3,0.2-0.4,0.5-0.4c0.3,0,0.5,0.2,0.4,0.5l-0.8,3h4.5l0.8-3.1c0.1-0.3,0.3-0.4,0.5-0.4 c0.3,0,0.5,0.2,0.4,0.5L175.5,77.7z"></path> <path class="st1" d="M186.9,75.2l-0.7-4l-2.9,4H186.9z M188.2,77.5c0,0.1,0,0.2,0,0.2c0,0.2-0.2,0.4-0.4,0.4 c-0.2,0-0.4-0.2-0.4-0.4l-0.3-1.7h-4.3l-1.3,1.8c-0.1,0.2-0.3,0.3-0.5,0.3c-0.2,0-0.4-0.1-0.4-0.4c0-0.1,0-0.2,0.1-0.3l5-7 c0.2-0.2,0.4-0.4,0.6-0.4h0c0.3,0,0.5,0.2,0.5,0.4L188.2,77.5z"></path> <path class="st1" d="M196.9,74.3c1,0,1.8-0.3,2.2-0.7c0.3-0.3,0.5-0.7,0.5-1.1c0-0.3-0.1-0.6-0.3-0.9c-0.3-0.3-0.8-0.5-1.5-0.5 h-2.1l-0.9,3.2H196.9z M193.9,77.7c-0.1,0.3-0.3,0.4-0.5,0.4c-0.3,0-0.5-0.2-0.4-0.5l1.9-6.9c0.1-0.3,0.3-0.4,0.5-0.4h2.4 c1,0,1.7,0.2,2.2,0.7c0.3,0.3,0.5,0.8,0.5,1.4c0,0.7-0.3,1.3-0.7,1.7c-0.5,0.5-1.2,0.8-2.1,0.9l1.3,2.5c0.1,0.1,0.1,0.2,0.1,0.3 c0,0.3-0.2,0.4-0.4,0.4c-0.2,0-0.4-0.1-0.5-0.3l-1.5-2.8h-2.1L193.9,77.7z"></path> <path class="st1" d="M213.4,70.2c0.3,0,0.5,0.2,0.4,0.6l-1.9,6.9c-0.1,0.3-0.3,0.4-0.5,0.4c-0.3,0-0.4-0.2-0.4-0.5l1.5-5.7 l-3.4,3.6c-0.1,0.2-0.3,0.3-0.5,0.3s-0.3-0.1-0.4-0.3l-1.5-3.6l-1.6,5.8c-0.1,0.3-0.3,0.4-0.5,0.4c-0.3,0-0.4-0.2-0.4-0.5l1.9-6.9 c0.1-0.3,0.2-0.5,0.5-0.5h0c0.2,0,0.4,0.1,0.5,0.3l1.6,4.1l3.8-4.1C213,70.3,213.1,70.2,213.4,70.2L213.4,70.2z"></path> <path class="st1" d="M223.3,75.2l-0.7-4l-2.9,4H223.3z M224.6,77.5c0,0.1,0,0.2,0,0.2c0,0.2-0.2,0.4-0.4,0.4 c-0.2,0-0.4-0.2-0.4-0.4l-0.3-1.7h-4.3l-1.3,1.8c-0.1,0.2-0.3,0.3-0.5,0.3c-0.2,0-0.4-0.1-0.4-0.4c0-0.1,0-0.2,0.1-0.3l5-7 c0.2-0.2,0.4-0.4,0.6-0.4h0c0.3,0,0.5,0.2,0.5,0.4L224.6,77.5z"></path> <path class="st1" d="M232.7,78.3c-1.8,0-3.3-1.2-3.3-3.2c0-2.5,2.1-4.9,4.7-4.9c1.2,0,2.1,0.5,2.7,1.3c0.1,0.1,0.2,0.2,0.2,0.4 c0,0.2-0.2,0.4-0.4,0.4c-0.1,0-0.3,0-0.3-0.2c-0.4-0.6-1-1.1-2.1-1.1c-2,0-3.7,1.9-3.7,4c0,1.5,1,2.5,2.5,2.5c1,0,1.6-0.3,2.2-0.9 c0.1-0.1,0.2-0.1,0.3-0.1c0.2,0,0.4,0.2,0.4,0.4c0,0.1-0.1,0.3-0.2,0.3C234.8,77.8,233.9,78.3,232.7,78.3"></path> <path class="st1" d="M243.2,77.7c-0.1,0.3-0.3,0.4-0.5,0.4c-0.3,0-0.5-0.2-0.4-0.5l0.7-2.6l-1.7-4c0-0.1-0.1-0.2-0.1-0.3 c0-0.2,0.2-0.4,0.5-0.4c0.2,0,0.4,0.1,0.4,0.4l1.5,3.7l3.6-3.8c0.1-0.1,0.3-0.2,0.5-0.2c0.2,0,0.4,0.1,0.4,0.4 c0,0.2-0.1,0.3-0.2,0.4l-4,4.2L243.2,77.7z"></path> </g> </svg> 